<svg xmlns="http://www.w3.org/2000/svg" fill="none" viewBox="0 0 1280 179"><path fill="#3904E9" d="M103.052 179v-50.16H69.524l-2.376 10.56H41.012l17.952-13.464c27.192-20.592 46.2-38.808 46.2-69.432C105.164 22.448 80.612.272 37.58.272c-26.928 0-49.104 10.824-62.04 22.704 0 13.728 1.056 27.456 3.432 38.28h39.336c1.32-11.352 6.864-20.064 17.424-20.064 10.56 0 16.632 6.336 16.632 17.688 0 15.048-7.392 28.248-29.04 45.672l-49.104 39.6V179h128.832zm89.516 2.64c40.392 0 65.208-22.176 65.208-54.384v-13.2c0-31.152-22.176-50.16-61.248-50.16-6.864 0-15.048 1.32-19.272 3.168l1.056-26.664h31.944l3.432 11.616h38.808l1.848-49.896H132.112l-3.168 86.592 34.848 18.744c7.392-2.64 16.368-3.96 25.608-3.96 11.616 0 16.632 4.752 16.632 15.048v8.712c0 6.864-6.072 13.464-15.84 13.464-10.56 0-13.992-4.224-16.632-10.032h-41.448a427.935 427.935 0 00-2.376 36.696c12.936 5.544 35.904 14.256 62.832 14.256zm157.101 1.056c38.544 0 67.32-21.384 67.32-57.024v-6.336c0-36.168-22.44-52.8-59.928-52.8-8.184 0-19.8 3.168-25.08 6.072v-6.864c0-16.632 8.448-24.024 20.592-24.024 9.24 0 14.52 2.64 19.008 7.392h33c1.056-10.032 2.904-25.344 2.904-38.544C392.701 3.44 370.789.272 352.309.272c-43.56 0-71.808 26.664-71.808 74.184v42.504c0 43.032 27.984 65.736 69.168 65.736zm0-41.184c-11.352 0-17.688-5.28-17.688-21.648v-8.448c4.752-2.376 11.352-4.224 18.48-4.224 5.016 0 14.784 1.584 14.784 14.784v2.904c0 11.352-6.336 16.632-15.576 16.632zM565.567 179v-50.16h-33.528l-2.376 10.56h-26.136l17.952-13.464c27.192-20.592 46.2-38.808 46.2-69.432 0-34.056-24.552-56.232-67.584-56.232-26.928 0-49.104 10.824-62.04 22.704 0 13.728 1.056 27.456 3.432 38.28h39.336c1.32-11.352 6.864-20.064 17.424-20.064 10.56 0 16.632 6.336 16.632 17.688 0 15.048-7.392 28.248-29.04 45.672l-49.104 39.6V179h128.832zm115.389-54.12V93.2h-81.84v31.68h81.84zM842.716 179v-50.16h-33.528l-2.376 10.56h-26.136l17.952-13.464c27.192-20.592 46.2-38.808 46.2-69.432 0-34.056-24.552-56.232-67.584-56.232-26.928 0-49.104 10.824-62.04 22.704 0 13.728 1.056 27.456 3.432 38.28h39.336c1.32-11.352 6.864-20.064 17.424-20.064 10.56 0 16.632 6.336 16.632 17.688 0 15.048-7.392 28.248-29.04 45.672l-49.104 39.6V179h128.832zm89.517 2.64c40.392 0 65.208-22.176 65.208-54.384v-13.2c0-31.152-22.176-50.16-61.248-50.16-6.864 0-15.048 1.32-19.272 3.168l1.056-26.664h31.944l3.432 11.616h38.808l1.848-49.896H871.777l-3.168 86.592 34.848 18.744c7.392-2.64 16.368-3.96 25.608-3.96 11.616 0 16.632 4.752 16.632 15.048v8.712c0 6.864-6.072 13.464-15.84 13.464-10.56 0-13.992-4.224-16.632-10.032h-41.448a427.935 427.935 0 00-2.376 36.696c12.936 5.544 35.904 14.256 62.832 14.256zm157.097 1.056c38.55 0 67.32-21.384 67.32-57.024v-6.336c0-36.168-22.44-52.8-59.92-52.8-8.19 0-19.8 3.168-25.08 6.072v-6.864c0-16.632 8.44-24.024 20.59-24.024 9.24 0 14.52 2.64 19.01 7.392h33c1.05-10.032 2.9-25.344 2.9-38.544-14.78-7.128-36.7-10.296-55.18-10.296-43.56 0-71.8 26.664-71.8 74.184v42.504c0 43.032 27.98 65.736 69.16 65.736zm0-41.184c-11.35 0-17.68-5.28-17.68-21.648v-8.448c4.75-2.376 11.35-4.224 18.48-4.224 5.01 0 14.78 1.584 14.78 14.784v2.904c0 11.352-6.34 16.632-15.58 16.632zm152.28 40.128c40.39 0 65.21-22.176 65.21-54.384v-13.2c0-31.152-22.18-50.16-61.25-50.16-6.87 0-15.05 1.32-19.27 3.168l1.05-26.664h31.95l3.43 11.616h38.81l1.84-49.896h-122.23l-3.17 86.592 34.85 18.744c7.39-2.64 16.37-3.96 25.61-3.96 11.62 0 16.63 4.752 16.63 15.048v8.712c0 6.864-6.07 13.464-15.84 13.464-10.56 0-13.99-4.224-16.63-10.032h-41.45a426.308 426.308 0 00-2.37 36.696c12.93 5.544 35.9 14.256 62.83 14.256z" opacity=".75"/></svg>