<svg xmlns="http://www.w3.org/2000/svg" fill="none" viewBox="0 0 1280 175"><path fill="#3904E9" d="M123.186 170.895v-47.961H91.127l-2.271 10.097H63.865l17.165-12.874c26-19.69 44.175-37.107 44.175-66.39C125.205 21.205 101.729 0 60.583 0 34.835 0 13.631 10.35 1.263 21.709c0 13.126 1.009 26.253 3.28 36.602h37.613c1.262-10.854 6.563-19.184 16.66-19.184 10.097 0 15.903 6.058 15.903 16.912 0 14.389-7.068 27.01-27.767 43.671L0 137.574v33.321h123.186zm85.594 2.525c38.622 0 62.35-21.205 62.35-52.001v-12.622c0-29.786-21.204-47.961-58.564-47.961-6.563 0-14.388 1.262-18.427 3.029l1.01-25.496h30.544l3.281 11.107h37.108l1.767-47.709H150.973l-3.029 82.797 33.321 17.923c7.068-2.525 15.651-3.787 24.486-3.787 11.107 0 15.903 4.544 15.903 14.389v8.33c0 6.563-5.806 12.874-15.146 12.874-10.097 0-13.379-4.039-15.903-9.592h-39.632a409.047 409.047 0 00-2.271 35.087c12.369 5.301 34.33 13.632 60.078 13.632zm150.215 1.009c36.855 0 64.37-20.447 64.37-54.525v-6.058c0-34.583-21.457-50.486-57.302-50.486-7.825 0-18.932 3.03-23.981 5.806v-6.563c0-15.903 8.078-22.971 19.69-22.971 8.835 0 13.883 2.524 18.175 7.068H411.5c1.01-9.593 2.777-24.234 2.777-36.855C400.141 3.029 379.189 0 361.519 0c-41.651 0-68.661 25.495-68.661 70.933v40.641c0 41.146 26.758 62.855 66.137 62.855zm0-39.379c-10.854 0-16.913-5.048-16.913-20.699v-8.078c4.544-2.272 10.855-4.039 17.67-4.039 4.796 0 14.136 1.515 14.136 14.136v2.777c0 10.855-6.058 15.903-14.893 15.903zm206.437 35.845v-47.961h-32.058l-2.272 10.097h-24.991l17.165-12.874c26.001-19.69 44.176-37.107 44.176-66.39C567.452 21.205 543.976 0 502.83 0c-25.748 0-46.952 10.35-59.322 21.709 0 13.126 1.01 26.253 3.282 36.602h37.612c1.262-10.854 6.563-19.184 16.661-19.184 10.097 0 15.903 6.058 15.903 16.912 0 14.389-7.068 27.01-27.768 43.671l-46.952 37.864v33.321h123.186zm110.331-51.748V88.855H597.51v30.292h78.253zm154.671 51.748v-47.961h-32.058l-2.272 10.097h-24.991l17.165-12.874c26.001-19.69 44.176-37.107 44.176-66.39C832.454 21.205 808.978 0 767.832 0c-25.748 0-46.952 10.35-59.322 21.709 0 13.126 1.01 26.253 3.282 36.602h37.612c1.262-10.854 6.563-19.184 16.661-19.184 10.097 0 15.903 6.058 15.903 16.912 0 14.389-7.068 27.01-27.768 43.671l-46.952 37.864v33.321h123.186zm85.594 2.525c38.622 0 62.347-21.205 62.347-52.001v-12.622c0-29.786-21.199-47.961-58.56-47.961-6.564 0-14.389 1.262-18.428 3.029l1.01-25.496h30.544l3.282 11.107h37.103l1.769-47.709H858.222l-3.029 82.797 33.32 17.923c7.068-2.525 15.651-3.787 24.486-3.787 11.107 0 15.903 4.544 15.903 14.389v8.33c0 6.563-5.806 12.874-15.146 12.874-10.097 0-13.379-4.039-15.903-9.592h-39.631a408.645 408.645 0 00-2.272 35.087c12.369 5.301 34.33 13.632 60.078 13.632zm150.222 1.009c36.85 0 64.37-20.447 64.37-54.525v-6.058c0-34.583-21.46-50.486-57.31-50.486-7.83 0-18.93 3.03-23.98 5.806v-6.563c0-15.903 8.08-22.971 19.69-22.971 8.84 0 13.88 2.524 18.18 7.068h31.55c1-9.593 2.77-24.234 2.77-36.855C1107.39 3.029 1086.44 0 1068.77 0c-41.65 0-68.66 25.495-68.66 70.933v40.641c0 41.146 26.75 62.855 66.14 62.855zm0-39.379c-10.86 0-16.92-5.048-16.92-20.699v-8.078c4.54-2.272 10.85-4.039 17.67-4.039 4.79 0 14.13 1.515 14.13 14.136v2.777c0 10.855-6.05 15.903-14.88 15.903zm149.38 39.379c36.85 0 64.37-20.447 64.37-54.525v-6.058c0-34.583-21.46-50.486-57.3-50.486-7.82 0-18.94 3.03-23.98 5.806v-6.563c0-15.903 8.08-22.971 19.68-22.971 8.84 0 13.89 2.524 18.18 7.068h31.55c1.02-9.593 2.79-24.234 2.79-36.855C1256.77 3.029 1235.82 0 1218.15 0c-41.65 0-68.66 25.495-68.66 70.933v40.641c0 41.146 26.77 62.855 66.14 62.855zm0-39.379c-10.85 0-16.91-5.048-16.91-20.699v-8.078c4.54-2.272 10.85-4.039 17.67-4.039 4.8 0 14.14 1.515 14.14 14.136v2.777c0 10.855-6.06 15.903-14.9 15.903z" opacity=".75"/></svg>