<svg xmlns="http://www.w3.org/2000/svg" fill="none" viewBox="0 0 20 20"><path fill="#fff" fill-rule="evenodd" d="M19.25 3.25a1 1 0 01-1 1h-6.304a2.876 2.876 0 01-5.392 0H1.75a1 1 0 110-2h4.804a2.876 2.876 0 015.392 0h6.304a1 1 0 011 1zm0 6.75a1 1 0 01-1 1h-1.804a2.876 2.876 0 01-5.392 0H1.75a1 1 0 110-2h9.304a2.876 2.876 0 015.392 0h1.804a1 1 0 011 1zm0 6.75a1 1 0 01-1 1H8.946a2.876 2.876 0 01-5.392 0H1.75a1 1 0 010-2h1.804a2.876 2.876 0 015.392 0h9.304a1 1 0 011 1zM14.625 10a.875.875 0 10-1.75 0 .875.875 0 001.75 0zm-4.5-6.75a.875.875 0 10-1.75 0 .875.875 0 001.75 0zm-3 13.5a.875.875 0 10-1.75 0 .875.875 0 001.75 0z" clip-rule="evenodd"/></svg>