<svg xmlns="http://www.w3.org/2000/svg" fill="none" viewBox="0 0 10 14"><path fill="#fff" d="M9.632 10.04l-.004-.058a.434.434 0 00-.43-.376h-7.35L3.713 7.74l.042-.048a.434.434 0 00-.657-.566L.491 9.735l-.041.05a.434.434 0 00.042.564l2.606 2.604.048.042a.434.434 0 00.566-.042l.042-.05a.434.434 0 00-.043-.565l-1.865-1.864h7.352l.059-.003a.434.434 0 00.375-.43v-.001zm-.127-6.39L6.902 1.048l-.049-.043a.434.434 0 00-.565.043l-.042.048a.434.434 0 00.042.565l1.863 1.863H.8l-.06.005a.434.434 0 00-.374.43l.004.058a.434.434 0 00.43.376H8.15L6.288 6.259l-.042.049a.434.434 0 00.656.564l2.603-2.608.041-.05a.434.434 0 00-.042-.564z"/></svg>