<svg xmlns="http://www.w3.org/2000/svg" fill="none" viewBox="0 0 14 14"><path fill="#fff" d="M13.213 12.352L9.155 8.294c.63-.814.97-1.81.97-2.857a4.66 4.66 0 00-1.373-3.314A4.653 4.653 0 005.437.75a4.66 4.66 0 00-3.314 1.373A4.65 4.65 0 00.75 5.437c0 1.252.49 2.43 1.373 3.315a4.65 4.65 0 003.314 1.373 4.65 4.65 0 002.855-.969l4.058 4.056a.129.129 0 00.181 0l.681-.68a.129.129 0 000-.18zm-5.3-4.44a3.481 3.481 0 01-2.476 1.026 3.481 3.481 0 01-2.475-1.026 3.481 3.481 0 01-1.025-2.474c0-.935.365-1.815 1.025-2.475a3.481 3.481 0 012.475-1.026c.935 0 1.815.363 2.475 1.025a3.481 3.481 0 011.026 2.475c0 .935-.365 1.815-1.026 2.475z"/></svg>