<svg xmlns="http://www.w3.org/2000/svg" fill="none" viewBox="0 0 175 108"><path fill="#373746" d="M42.37 111.24c23.36 0 40.8-12.96 40.8-34.56v-3.84c0-21.92-13.6-32-36.32-32-4.96 0-12 1.92-15.2 3.68v-4.16c0-10.08 5.12-14.56 12.48-14.56 5.6 0 8.8 1.6 11.52 4.48h20c.64-6.08 1.76-15.36 1.76-23.36C68.45 2.6 55.17.68 43.97.68 17.57.68.45 16.84.45 45.64V71.4c0 26.08 16.96 39.84 41.92 39.84zm0-24.96c-6.88 0-10.72-3.2-10.72-13.12v-5.12c2.88-1.44 6.88-2.56 11.2-2.56 3.04 0 8.96.96 8.96 8.96v1.76c0 6.88-3.84 10.08-9.44 10.08zM173.218 109V78.6h-20.32l-1.44 6.4h-15.84l10.88-8.16c16.48-12.48 28-23.52 28-42.08 0-20.64-14.88-34.08-40.96-34.08-16.32 0-29.76 6.56-37.6 13.76 0 8.32.64 16.64 2.08 23.2h23.84c.8-6.88 4.16-12.16 10.56-12.16s10.08 3.84 10.08 10.72c0 9.12-4.48 17.12-17.6 27.68l-29.76 24V109h78.08z" opacity=".75"/></svg>