<svg xmlns="http://www.w3.org/2000/svg" fill="none" viewBox="0 0 175 108"><path fill="#373746" d="M42.37 111.24c23.36 0 40.8-12.96 40.8-34.56v-3.84c0-21.92-13.6-32-36.32-32-4.96 0-12 1.92-15.2 3.68v-4.16c0-10.08 5.12-14.56 12.48-14.56 5.6 0 8.8 1.6 11.52 4.48h20c.64-6.08 1.76-15.36 1.76-23.36C68.45 2.6 55.17.68 43.97.68 17.57.68.45 16.84.45 45.64V71.4c0 26.08 16.96 39.84 41.92 39.84zm0-24.96c-6.88 0-10.72-3.2-10.72-13.12v-5.12c2.88-1.44 6.88-2.56 11.2-2.56 3.04 0 8.96.96 8.96 8.96v1.76c0 6.88-3.84 10.08-9.44 10.08zm92.288 24.32c24.48 0 39.52-13.44 39.52-32.96v-8c0-18.88-13.44-30.4-37.12-30.4-4.16 0-9.12.8-11.68 1.92l.64-16.16h19.36l2.08 7.04h23.52l1.12-30.24h-74.08l-1.92 52.48 21.12 11.36c4.48-1.6 9.92-2.4 15.52-2.4 7.04 0 10.08 2.88 10.08 9.12v5.28c0 4.16-3.68 8.16-9.6 8.16-6.4 0-8.48-2.56-10.08-6.08h-25.12c-.8 7.36-1.28 14.88-1.44 22.24 7.84 3.36 21.76 8.64 38.08 8.64z" opacity=".75"/></svg>