<svg xmlns="http://www.w3.org/2000/svg" fill="none" viewBox="0 0 88 56"><path fill="#373746" d="M21.56 55.316c11.68 0 20.4-6.48 20.4-17.28v-1.92c0-10.96-6.8-16-18.16-16-2.48 0-6 .96-7.6 1.84v-2.08c0-5.04 2.56-7.28 6.24-7.28 2.8 0 4.4.8 5.76 2.24h10c.32-3.04.88-7.68.88-11.68C34.6.997 27.96.037 22.36.037 9.16.037.6 8.117.6 22.517v12.88c0 13.04 8.48 19.92 20.96 19.92zm0-12.48c-3.44 0-5.36-1.6-5.36-6.56v-2.56c1.44-.72 3.44-1.28 5.6-1.28 1.52 0 4.48.48 4.48 4.48v.88c0 3.44-1.92 5.04-4.72 5.04zm65.424 11.36v-15.2h-10.16l-.72 3.2h-7.92l5.44-4.08c8.24-6.24 14-11.76 14-21.04 0-10.32-7.44-17.04-20.48-17.04-8.16 0-14.88 3.28-18.8 6.88 0 4.16.32 8.32 1.04 11.6h11.92c.4-3.44 2.08-6.08 5.28-6.08s5.04 1.92 5.04 5.36c0 4.56-2.24 8.56-8.8 13.84l-14.88 12v10.56h39.04z" opacity=".75"/></svg>