<svg xmlns="http://www.w3.org/2000/svg" fill="none" viewBox="0 0 89 56"><path fill="#373746" d="M21.56 55.316c11.68 0 20.4-6.48 20.4-17.28v-1.92c0-10.96-6.8-16-18.16-16-2.48 0-6 .96-7.6 1.84v-2.08c0-5.04 2.56-7.28 6.24-7.28 2.8 0 4.4.8 5.76 2.24h10c.32-3.04.88-7.68.88-11.68C34.6.997 27.96.037 22.36.037 9.16.037.6 8.117.6 22.517v12.88c0 13.04 8.48 19.92 20.96 19.92zm0-12.48c-3.44 0-5.36-1.6-5.36-6.56v-2.56c1.44-.72 3.44-1.28 5.6-1.28 1.52 0 4.48.48 4.48 4.48v.88c0 3.44-1.92 5.04-4.72 5.04zm46.944 12.16c12.24 0 20.24-6.72 20.24-16.48v-2c0-5.92-3.76-9.6-7.92-10.56v-.08c4.08-1.12 6.8-4.88 6.8-9.68v-1.36c-.08-10.64-8.88-14.8-18.72-14.8-7.52 0-15.36 2.88-19.76 5.6 0 3.52.48 8 1.04 10.96h12.72c.24-2.8 2.4-4.16 4.72-4.16 2.96 0 4.4 1.52 4.4 3.68v1.2c0 3.2-1.2 4.4-3.6 4.4h-6.48v10.72l6.96.56c2.96.24 4.16 1.68 4.16 4.24v1.28c0 2-2.08 4.08-5.04 4.08-3.28 0-5.04-1.12-5.68-3.36h-12.8c-.48 3.2-.88 7.28-.8 11.12 3.04 1.92 11.44 4.64 19.76 4.64z" opacity=".75"/></svg>