<svg xmlns="http://www.w3.org/2000/svg" fill="none" viewBox="0 0 177 108"><path fill="#373746" d="M42.589 111.24c23.36 0 40.8-12.96 40.8-34.56v-3.84c0-21.92-13.6-32-36.32-32-4.96 0-12 1.92-15.2 3.68v-4.16c0-10.08 5.12-14.56 12.48-14.56 5.6 0 8.8 1.6 11.52 4.48h20c.64-6.08 1.76-15.36 1.76-23.36C68.669 2.6 55.389.68 44.189.68 17.789.68.669 16.84.669 45.64V71.4c0 26.08 16.96 39.84 41.92 39.84zm0-24.96c-6.88 0-10.72-3.2-10.72-13.12v-5.12c2.88-1.44 6.88-2.56 11.2-2.56 3.04 0 8.96.96 8.96 8.96v1.76c0 6.88-3.84 10.08-9.44 10.08zm93.887 24.32c24.48 0 40.48-13.44 40.48-32.96v-4c0-11.84-7.52-19.2-15.84-21.12v-.16c8.16-2.24 13.6-9.76 13.6-19.36v-2.72C174.556 9 156.956.68 137.276.68c-15.04 0-30.72 5.76-39.52 11.2 0 7.04.96 16 2.08 21.92h25.44c.48-5.6 4.8-8.32 9.44-8.32 5.92 0 8.8 3.04 8.8 7.36v2.4c0 6.4-2.4 8.8-7.2 8.8h-12.96v21.44l13.92 1.12c5.92.48 8.32 3.36 8.32 8.48v2.56c0 4-4.16 8.16-10.08 8.16-6.56 0-10.08-2.24-11.36-6.72h-25.6c-.96 6.4-1.76 14.56-1.6 22.24 6.08 3.84 22.88 9.28 39.52 9.28z" opacity=".75"/></svg>