<svg xmlns="http://www.w3.org/2000/svg" fill="none" viewBox="0 0 177 108"><path fill="#373746" d="M42.37 111.24c23.36 0 40.8-12.96 40.8-34.56v-3.84c0-21.92-13.6-32-36.32-32-4.96 0-12 1.92-15.2 3.68v-4.16c0-10.08 5.12-14.56 12.48-14.56 5.6 0 8.8 1.6 11.52 4.48h20c.64-6.08 1.76-15.36 1.76-23.36C68.45 2.6 55.17.68 43.97.68 17.57.68.45 16.84.45 45.64V71.4c0 26.08 16.96 39.84 41.92 39.84zm0-24.96c-6.88 0-10.72-3.2-10.72-13.12v-5.12c2.88-1.44 6.88-2.56 11.2-2.56 3.04 0 8.96.96 8.96 8.96v1.76c0 6.88-3.84 10.08-9.44 10.08zM174.818 109V91.72l-7.84-2.08v-6.88h9.76V62.44h-9.76V1.8h-33.44l-41.6 60.8v20.16h43.84v6.88l-9.6 1.92V109h48.64zm-39.04-70.4v23.84h-16.64l16.64-23.84z" opacity=".75"/></svg>