<svg xmlns="http://www.w3.org/2000/svg" fill="none" viewBox="0 0 89 56"><path fill="#373746" d="M21.56 55.316c11.68 0 20.4-6.48 20.4-17.28v-1.92c0-10.96-6.8-16-18.16-16-2.48 0-6 .96-7.6 1.84v-2.08c0-5.04 2.56-7.28 6.24-7.28 2.8 0 4.4.8 5.76 2.24h10c.32-3.04.88-7.68.88-11.68C34.6.997 27.96.037 22.36.037 9.16.037.6 8.117.6 22.517v12.88c0 13.04 8.48 19.92 20.96 19.92zm0-12.48c-3.44 0-5.36-1.6-5.36-6.56v-2.56c1.44-.72 3.44-1.28 5.6-1.28 1.52 0 4.48.48 4.48 4.48v.88c0 3.44-1.92 5.04-4.72 5.04zm66.224 11.36v-8.64l-3.92-1.04v-3.44h4.88v-10.16h-4.88V.596h-16.72l-20.8 30.4v10.08h21.92v3.44l-4.8.96v8.72h24.32zm-19.52-35.2v11.92h-8.32l8.32-11.92z" opacity=".75"/></svg>