<svg xmlns="http://www.w3.org/2000/svg" fill="none" viewBox="0 0 88 56"><path fill="#373746" d="M21.56 55.316c11.68 0 20.4-6.48 20.4-17.28v-1.92c0-10.96-6.8-16-18.16-16-2.48 0-6 .96-7.6 1.84v-2.08c0-5.04 2.56-7.28 6.24-7.28 2.8 0 4.4.8 5.76 2.24h10c.32-3.04.88-7.68.88-11.68C34.6.997 27.96.037 22.36.037 9.16.037.6 8.117.6 22.517v12.88c0 13.04 8.48 19.92 20.96 19.92zm0-12.48c-3.44 0-5.36-1.6-5.36-6.56v-2.56c1.44-.72 3.44-1.28 5.6-1.28 1.52 0 4.48.48 4.48 4.48v.88c0 3.44-1.92 5.04-4.72 5.04zm46.144 12.16c12.24 0 19.76-6.72 19.76-16.48v-4c0-9.44-6.72-15.2-18.56-15.2-2.08 0-4.56.4-5.84.96l.32-8.08h9.68l1.04 3.52h11.76l.56-15.12h-37.04l-.96 26.24 10.56 5.68c2.24-.8 4.96-1.2 7.76-1.2 3.52 0 5.04 1.44 5.04 4.56v2.64c0 2.08-1.84 4.08-4.8 4.08-3.2 0-4.24-1.28-5.04-3.04h-12.56c-.4 3.68-.64 7.44-.72 11.12 3.92 1.68 10.88 4.32 19.04 4.32z" opacity=".75"/></svg>