<svg xmlns="http://www.w3.org/2000/svg" fill="none" viewBox="0 0 89 56"><path d="M20.994 55.521c11.587 0 20.238-6.428 20.238-17.142v-1.905c0-10.873-6.746-15.873-18.016-15.873-2.46 0-5.953.952-7.54 1.825v-2.063c0-5 2.54-7.223 6.19-7.223 2.779 0 4.366.794 5.715 2.223h9.92c.318-3.016.874-7.62.874-11.588C33.93 1.632 27.343.68 21.787.68 8.692.68.2 8.696.2 22.982V35.76C.2 48.696 8.613 55.52 20.994 55.52zm0-12.38c-3.413 0-5.318-1.588-5.318-6.508v-2.54c1.429-.715 3.413-1.27 5.556-1.27 1.508 0 4.444.476 4.444 4.444v.873c0 3.413-1.905 5-4.682 5zM67.962 55.521c11.587 0 20.238-6.428 20.238-17.142v-1.905C88.2 25.6 81.454 20.6 70.184 20.6c-2.46 0-5.952.952-7.54 1.825v-2.063c0-5 2.54-7.223 6.19-7.223 2.779 0 4.366.794 5.715 2.223h9.92c.318-3.016.874-7.62.874-11.588C80.898 1.632 74.31.68 68.755.68 55.66.68 47.168 8.696 47.168 22.982V35.76c0 12.936 8.413 19.761 20.794 19.761zm0-12.38c-3.413 0-5.318-1.588-5.318-6.508v-2.54c1.429-.715 3.413-1.27 5.556-1.27 1.508 0 4.444.476 4.444 4.444v.873c0 3.413-1.904 5-4.682 5z" fill="#373746" opacity=".75"/></svg>